<?xml version="1.0" ?><!DOCTYPE svg  PUBLIC '-//W3C//DTD SVG 1.1//EN'  'http://www.w3.org/Graphics/SVG/1.1/DTD/svg11.dtd'><svg id="Lager_1" style="enable-background:new -265 388.9 64 64;" version="1.1" viewBox="-265 388.9 64 64" xml:space="preserve" xmlns="http://www.w3.org/2000/svg" xmlns:xlink="http://www.w3.org/1999/xlink"><g><path d="M-214.4,400h-9.8l-0.4-1.1c-0.2-0.6-0.8-1-1.5-1h-13.8c-0.7,0-1.3,0.4-1.5,1.1l-0.4,1.1h-9.8c0,0-3.6,0-3.7,7   c0,0.2,0.2,0.5,0.4,0.5h43.6c0.2,0,0.4-0.2,0.4-0.5C-210.9,400-214.4,400-214.4,400z"/><path d="M-214.2,410.6h-37.5c-0.2,0-0.3,0.2-0.3,0.3l3,31.5c0.1,0.8,0.8,1.4,1.6,1.4h28.9c0.8,0,1.5-0.6,1.6-1.4l3-31.5   C-213.9,410.8-214.1,410.6-214.2,410.6z M-226.6,420.2h-12.7V417h12.7V420.2z"/></g></svg>